<svg width="24" height="24" viewBox="0 0 24 24" fill="none" xmlns="http://www.w3.org/2000/svg">
<g id=" Outline / menu">
<path id="Union" fill-rule="evenodd" clip-rule="evenodd" d="M18 3.94824L18 20.0512C18 20.5732 17.573 21.0002 17.051 21.0002L16.949 21.0002C16.427 21.0002 16 20.5732 16 20.0512L16 3.94824C16 3.42624 16.427 3.00024 16.949 3.00024L17.051 3.00024C17.573 3.00024 18 3.42624 18 3.94824ZM13 20.0512L13 3.94824C13 3.42624 12.573 3.00024 12.051 3.00024L11.949 3.00024C11.427 3.00024 11 3.42624 11 3.94824L11 20.0512C11 20.5732 11.427 21.0002 11.949 21.0002L12.051 21.0002C12.573 21.0002 13 20.5732 13 20.0512ZM8 20.0512L8 3.94824C8 3.42624 7.573 3.00024 7.051 3.00024L6.949 3.00024C6.427 3.00024 6 3.42624 6 3.94824L6 20.0512C6 20.5732 6.427 21.0002 6.949 21.0002L7.051 21.0002C7.573 21.0002 8 20.5732 8 20.0512Z" fill="#757D8A"/>
</g>
</svg>
