<svg width="441" height="74" viewBox="0 0 441 74" fill="none" xmlns="http://www.w3.org/2000/svg">
<path d="M150.009 25.6001L142.791 26.8786C142.489 25.9553 142.01 25.0764 141.353 24.2418C140.713 23.4073 139.843 22.7237 138.743 22.1911C137.642 21.6584 136.266 21.392 134.614 21.392C132.359 21.392 130.477 21.8981 128.968 22.9102C127.459 23.9045 126.704 25.1918 126.704 26.772C126.704 28.1392 127.21 29.2401 128.222 30.0746C129.234 30.9091 130.868 31.5927 133.123 32.1254L139.621 33.6168C143.386 34.4869 146.191 35.8274 148.038 37.6385C149.884 39.4496 150.808 41.8022 150.808 44.6964C150.808 47.1467 150.097 49.3306 148.677 51.2482C147.274 53.1481 145.312 54.6396 142.791 55.7227C140.287 56.8058 137.384 57.3473 134.082 57.3473C129.501 57.3473 125.763 56.3707 122.869 54.4176C119.975 52.4467 118.199 49.6502 117.542 46.0281L125.239 44.8562C125.719 46.8626 126.704 48.3807 128.196 49.4105C129.687 50.4226 131.631 50.9286 134.028 50.9286C136.638 50.9286 138.725 50.3871 140.287 49.304C141.85 48.2031 142.631 46.8626 142.631 45.2823C142.631 44.0039 142.152 42.9297 141.193 42.0597C140.252 41.1896 138.805 40.5327 136.852 40.0888L129.927 38.5707C126.109 37.7006 123.286 36.3157 121.457 34.4158C119.646 32.516 118.741 30.1101 118.741 27.1982C118.741 24.7834 119.415 22.6705 120.765 20.8594C122.114 19.0483 123.979 17.6367 126.358 16.6246C128.737 15.5948 131.463 15.0799 134.534 15.0799C138.956 15.0799 142.436 16.0387 144.975 17.9563C147.514 19.8562 149.192 22.4041 150.009 25.6001Z" fill="white"/>
<path d="M162.347 71.8626C161.157 71.8626 160.074 71.7649 159.098 71.5696C158.121 71.392 157.393 71.1967 156.914 70.9837L158.831 64.4585C160.287 64.8491 161.584 65.0178 162.72 64.9645C163.856 64.9112 164.859 64.4851 165.729 63.6861C166.617 62.8871 167.399 61.582 168.073 59.771L169.059 57.0543L154.091 15.6126H162.613L172.974 47.3597H173.4L183.76 15.6126H192.31L175.451 61.9815C174.669 64.1122 173.675 65.9144 172.468 67.3881C171.26 68.8796 169.822 69.9982 168.153 70.744C166.484 71.4897 164.549 71.8626 162.347 71.8626Z" fill="white"/>
<path d="M205.507 32.2319V56.5217H197.544V15.6126H205.188V22.271H205.694C206.635 20.1048 208.108 18.3647 210.115 17.0508C212.139 15.7369 214.687 15.0799 217.759 15.0799C220.546 15.0799 222.988 15.6658 225.083 16.8377C227.178 17.9918 228.803 19.7141 229.957 22.0046C231.111 24.2951 231.688 27.1271 231.688 30.5007V56.5217H223.725V31.4595C223.725 28.4943 222.952 26.1772 221.407 24.5082C219.863 22.8214 217.741 21.978 215.042 21.978C213.195 21.978 211.553 22.3775 210.115 23.1765C208.694 23.9755 207.567 25.1474 206.732 26.6921C205.916 28.2191 205.507 30.0657 205.507 32.2319Z" fill="white"/>
<path d="M257.35 57.3473C253.39 57.3473 249.981 56.4506 247.123 54.6573C244.282 52.8462 242.098 50.3516 240.571 47.1733C239.044 43.995 238.28 40.3551 238.28 36.2536C238.28 32.0987 239.062 28.4322 240.624 25.2539C242.187 22.0579 244.388 19.5632 247.229 17.7699C250.07 15.9766 253.417 15.0799 257.27 15.0799C260.377 15.0799 263.147 15.657 265.58 16.8111C268.012 17.9474 269.974 19.5455 271.466 21.6051C272.975 23.6648 273.872 26.0707 274.156 28.8228H266.405C265.979 26.9052 265.003 25.2539 263.476 23.869C261.966 22.484 259.942 21.7915 257.403 21.7915C255.184 21.7915 253.239 22.3775 251.57 23.5494C249.919 24.7035 248.632 26.3548 247.709 28.5032C246.785 30.6339 246.324 33.1552 246.324 36.0671C246.324 39.0501 246.776 41.6246 247.682 43.7908C248.587 45.957 249.866 47.6349 251.517 48.8246C253.186 50.0142 255.148 50.609 257.403 50.609C258.912 50.609 260.28 50.3338 261.505 49.7834C262.748 49.2152 263.786 48.4073 264.621 47.3597C265.473 46.3121 266.068 45.0515 266.405 43.5778H274.156C273.872 46.2234 273.01 48.5849 271.572 50.6623C270.134 52.7397 268.207 54.3732 265.793 55.5629C263.396 56.7525 260.581 57.3473 257.35 57.3473Z" fill="white"/>
<path d="M289.291 56.5217L277.252 15.6126H285.482L293.499 45.6552H293.898L301.942 15.6126H310.171L318.161 45.522H318.561L326.524 15.6126H334.754L322.742 56.5217H314.619L306.309 26.9851H305.697L297.387 56.5217H289.291Z" fill="white"/>
<path d="M351.967 57.4272C349.374 57.4272 347.03 56.9478 344.935 55.989C342.84 55.0124 341.18 53.6009 339.955 51.7543C338.747 49.9077 338.144 47.6438 338.144 44.9627C338.144 42.6545 338.588 40.7546 339.475 39.2631C340.363 37.7717 341.562 36.5909 343.071 35.7209C344.58 34.8509 346.267 34.1939 348.131 33.75C349.996 33.3061 351.895 32.9688 353.831 32.7379C356.281 32.4538 358.27 32.223 359.797 32.0455C361.324 31.8501 362.433 31.5394 363.126 31.1133C363.818 30.6871 364.165 29.9947 364.165 29.0359V28.8494C364.165 26.5234 363.508 24.7212 362.194 23.4428C360.898 22.1644 358.962 21.5252 356.388 21.5252C353.707 21.5252 351.594 22.12 350.049 23.3097C348.522 24.4815 347.465 25.7866 346.88 27.2248L339.395 25.5202C340.283 23.0344 341.579 21.0281 343.284 19.5011C345.006 17.9563 346.986 16.8377 349.223 16.1452C351.46 15.435 353.813 15.0799 356.281 15.0799C357.915 15.0799 359.646 15.2752 361.475 15.6658C363.321 16.0387 365.044 16.7312 366.642 17.7433C368.257 18.7553 369.58 20.2024 370.61 22.0845C371.64 23.9489 372.155 26.3725 372.155 29.3555V56.5217H364.378V50.9286H364.058C363.543 51.9585 362.771 52.9705 361.741 53.9648C360.711 54.9592 359.388 55.7848 357.773 56.4418C356.157 57.0987 354.221 57.4272 351.967 57.4272ZM353.698 51.0352C355.899 51.0352 357.781 50.6001 359.344 49.7301C360.924 48.8601 362.123 47.7237 362.94 46.321C363.774 44.9006 364.191 43.3825 364.191 41.7667V36.4933C363.907 36.7773 363.357 37.0437 362.54 37.2923C361.741 37.5231 360.827 37.7273 359.797 37.9048C358.767 38.0646 357.764 38.2156 356.787 38.3576C355.811 38.4819 354.994 38.5884 354.337 38.6772C352.792 38.8725 351.381 39.201 350.102 39.6626C348.842 40.1243 347.829 40.7901 347.066 41.6602C346.32 42.5124 345.947 43.6488 345.947 45.0692C345.947 47.0401 346.675 48.5316 348.131 49.5437C349.587 50.538 351.443 51.0352 353.698 51.0352Z" fill="white"/>
<path d="M380.512 56.5217V15.6126H388.209V22.1112H388.635C389.38 19.9094 390.694 18.1783 392.577 16.9176C394.476 15.6392 396.625 15 399.022 15C399.519 15 400.105 15.0178 400.78 15.0533C401.472 15.0888 402.014 15.1332 402.404 15.1864V22.8036C402.085 22.7148 401.517 22.6172 400.7 22.5107C399.883 22.3864 399.066 22.3242 398.249 22.3242C396.367 22.3242 394.689 22.7237 393.216 23.5227C391.76 24.304 390.606 25.396 389.753 26.7987C388.901 28.1836 388.475 29.7639 388.475 31.5394V56.5217H380.512Z" fill="white"/>
<path d="M423.212 57.3473C419.182 57.3473 415.71 56.4862 412.799 54.7639C409.904 53.0238 407.667 50.5824 406.087 47.4396C404.524 44.2791 403.743 40.5771 403.743 36.3335C403.743 32.1431 404.524 28.4499 406.087 25.2539C407.667 22.0579 409.869 19.5632 412.692 17.7699C415.533 15.9766 418.853 15.0799 422.653 15.0799C424.961 15.0799 427.198 15.4616 429.365 16.2251C431.531 16.9886 433.475 18.1871 435.197 19.8207C436.92 21.4542 438.278 23.576 439.272 26.1861C440.267 28.7784 440.764 31.93 440.764 35.641V38.4641H408.244V32.4982H432.96C432.96 30.4031 432.534 28.5476 431.682 26.9318C430.829 25.2983 429.631 24.011 428.086 23.07C426.559 22.1289 424.766 21.6584 422.706 21.6584C420.469 21.6584 418.516 22.2088 416.847 23.3097C415.196 24.3928 413.917 25.8132 413.012 27.571C412.124 29.3111 411.68 31.2021 411.68 33.244V37.9048C411.68 40.6392 412.159 42.9652 413.118 44.8828C414.095 46.8004 415.453 48.2653 417.193 49.2773C418.933 50.2717 420.966 50.7688 423.292 50.7688C424.801 50.7688 426.177 50.5558 427.42 50.1296C428.663 49.6857 429.737 49.0288 430.643 48.1587C431.549 47.2887 432.241 46.2145 432.72 44.9361L440.258 46.2944C439.654 48.5139 438.571 50.4581 437.008 52.1271C435.464 53.7784 433.519 55.0657 431.176 55.989C428.85 56.8945 426.195 57.3473 423.212 57.3473Z" fill="white"/>
<circle cx="37" cy="37" r="35" stroke="white" stroke-width="3.56481"/>
<circle cx="47" cy="37" r="35" stroke="white" stroke-width="3.56481"/>
<circle cx="57" cy="37" r="35" stroke="white" stroke-width="3.56481"/>
</svg>
